<mxfile host="app.diagrams.net" modified="2024-06-27T00:12:26.260Z" agent="Mozilla/5.0 (Windows NT 10.0; Win64; x64) AppleWebKit/537.36 (KHTML, like Gecko) Chrome/126.0.0.0 Safari/537.36" version="24.6.3" etag="3wf5WD9cay2h3gvtfoT9" type="github">
  <diagram name="PÃ¡gina-1" id="7eqmApV4t27lQblZR4So">
    <mxGraphModel>
      <root>
        <mxCell id="0" />
        <mxCell id="1" parent="0" />
      </root>
    </mxGraphModel>
  </diagram>
</mxfile>
